M48
;DRILL file {KiCad 4.0.2-stable} date 5/2/2017 7:57:36 PM
;FORMAT={-:-/ absolute / inch / decimal}
FMAT,2
INCH,TZ
T1C0.031
T2C0.032
T3C0.039
%
G90
G05
M72
T1
X6.1Y-4.05
X6.1Y-4.15
X6.1Y-4.25
X6.1Y-4.35
X6.1Y-4.45
X6.1Y-4.55
X6.1Y-4.65
X6.4Y-4.05
X6.4Y-4.15
X6.4Y-4.25
X6.4Y-4.35
X6.4Y-4.45
X6.4Y-4.55
X6.4Y-4.65
T2
X6.2Y-4.25
X6.2Y-4.65
X6.3Y-4.05
X6.3Y-4.55
X6.5Y-4.25
X6.5Y-4.65
X6.6Y-4.05
X6.6Y-4.35
T3
X6.7Y-4.05
X6.7Y-4.15
X6.7Y-4.25
X6.7Y-4.35
X6.7Y-4.45
X6.7Y-4.55
X6.7Y-4.65
T0
M30
