G04 #@! TF.FileFunction,Copper,L2,Bot,Signal*
%FSLAX46Y46*%
G04 Gerber Fmt 4.6, Leading zero omitted, Abs format (unit mm)*
G04 Created by KiCad (PCBNEW 4.0.2-stable) date 5/3/2017 12:37:19 AM*
%MOMM*%
G01*
G04 APERTURE LIST*
%ADD10C,0.100000*%
%ADD11R,2.400000X1.600000*%
%ADD12O,2.400000X1.600000*%
%ADD13R,1.700000X1.700000*%
%ADD14O,1.700000X1.700000*%
%ADD15C,1.270000*%
%ADD16C,1.270000*%
G04 APERTURE END LIST*
D10*
D11*
X163830000Y-120650000D03*
D12*
X156210000Y-105410000D03*
X163830000Y-118110000D03*
X156210000Y-107950000D03*
X163830000Y-115570000D03*
X156210000Y-110490000D03*
X163830000Y-113030000D03*
X156210000Y-113030000D03*
X163830000Y-110490000D03*
X156210000Y-115570000D03*
X163830000Y-107950000D03*
X156210000Y-118110000D03*
X163830000Y-105410000D03*
X156210000Y-120650000D03*
D13*
X148501100Y-105410000D03*
D14*
X148501100Y-107950000D03*
X148501100Y-110490000D03*
X148501100Y-113030000D03*
X148501100Y-115570000D03*
X148501100Y-118110000D03*
X148501100Y-120650000D03*
D11*
X140970000Y-120650000D03*
D12*
X133350000Y-105410000D03*
X140970000Y-118110000D03*
X133350000Y-107950000D03*
X140970000Y-115570000D03*
X133350000Y-110490000D03*
X140970000Y-113030000D03*
X133350000Y-113030000D03*
X140970000Y-110490000D03*
X133350000Y-115570000D03*
X140970000Y-107950000D03*
X133350000Y-118110000D03*
X140970000Y-105410000D03*
X133350000Y-120650000D03*
D15*
X144780000Y-118110000D03*
X144780000Y-113030000D03*
X144780000Y-105410000D03*
X158750000Y-107950000D03*
X161290000Y-119380000D03*
X153670000Y-105410000D03*
X151130000Y-114300000D03*
X149860000Y-123190000D03*
X137160000Y-107950000D03*
X137160000Y-118110000D03*
D16*
X154940000Y-110490000D02*
X149860000Y-105410000D01*
X149860000Y-105410000D02*
X148501100Y-105410000D01*
X156210000Y-110490000D02*
X154940000Y-110490000D01*
X156210000Y-110490000D02*
X163830000Y-110490000D01*
X156210000Y-113030000D02*
X156210000Y-110490000D01*
X133350000Y-110490000D02*
X140970000Y-110490000D01*
X133350000Y-113030000D02*
X133350000Y-110490000D01*
X142240000Y-110490000D02*
X147320000Y-105410000D01*
X147320000Y-105410000D02*
X148501100Y-105410000D01*
X140970000Y-110490000D02*
X142240000Y-110490000D01*
X157480000Y-115570000D02*
X160020000Y-113030000D01*
X160020000Y-113030000D02*
X163830000Y-113030000D01*
X156210000Y-115570000D02*
X157480000Y-115570000D01*
X153670000Y-114300000D02*
X154940000Y-115570000D01*
X154940000Y-115570000D02*
X156210000Y-115570000D01*
X153670000Y-111760000D02*
X153670000Y-114300000D01*
X152400000Y-110490000D02*
X153670000Y-111760000D01*
X148501100Y-110490000D02*
X152400000Y-110490000D01*
X138430000Y-113030000D02*
X135890000Y-115570000D01*
X135890000Y-115570000D02*
X133350000Y-115570000D01*
X140970000Y-113030000D02*
X138430000Y-113030000D01*
X144780000Y-110490000D02*
X142240000Y-113030000D01*
X142240000Y-113030000D02*
X140970000Y-113030000D01*
X148501100Y-110490000D02*
X144780000Y-110490000D01*
X140970000Y-118110000D02*
X144780000Y-118110000D01*
X144780000Y-113030000D02*
X148501100Y-113030000D01*
X142240000Y-107950000D02*
X144780000Y-105410000D01*
X140970000Y-107950000D02*
X142240000Y-107950000D01*
X158750000Y-107950000D02*
X156210000Y-107950000D01*
X163830000Y-118110000D02*
X162560000Y-118110000D01*
X162560000Y-118110000D02*
X161290000Y-119380000D01*
X153670000Y-106680000D02*
X154940000Y-107950000D01*
X154940000Y-107950000D02*
X156210000Y-107950000D01*
X153670000Y-105410000D02*
X153670000Y-106680000D01*
X148501100Y-115570000D02*
X149860000Y-115570000D01*
X149860000Y-115570000D02*
X151130000Y-114300000D01*
X166370000Y-106680000D02*
X165100000Y-107950000D01*
X165100000Y-107950000D02*
X163830000Y-107950000D01*
X166370000Y-104140000D02*
X166370000Y-106680000D01*
X165100000Y-102870000D02*
X166370000Y-104140000D01*
X144780000Y-102870000D02*
X165100000Y-102870000D01*
X142240000Y-105410000D02*
X144780000Y-102870000D01*
X140970000Y-105410000D02*
X142240000Y-105410000D01*
X146050000Y-119380000D02*
X147320000Y-118110000D01*
X146050000Y-121920000D02*
X146050000Y-119380000D01*
X144780000Y-123190000D02*
X146050000Y-121920000D01*
X132080000Y-123190000D02*
X144780000Y-123190000D01*
X130810000Y-121920000D02*
X132080000Y-123190000D01*
X130810000Y-106680000D02*
X130810000Y-121920000D01*
X132080000Y-105410000D02*
X130810000Y-106680000D01*
X133350000Y-105410000D02*
X132080000Y-105410000D01*
X144780000Y-115570000D02*
X147320000Y-118110000D01*
X147320000Y-118110000D02*
X148501100Y-118110000D01*
X140970000Y-115570000D02*
X144780000Y-115570000D01*
X156210000Y-118110000D02*
X148501100Y-118110000D01*
X133350000Y-105410000D02*
X140970000Y-105410000D01*
X133350000Y-107950000D02*
X137160000Y-107950000D01*
X133350000Y-118110000D02*
X137160000Y-118110000D01*
X162560000Y-123190000D02*
X163830000Y-121920000D01*
X163830000Y-121920000D02*
X163830000Y-120650000D01*
X149860000Y-123190000D02*
X162560000Y-123190000D01*
X148501100Y-121831100D02*
X149860000Y-123190000D01*
X148501100Y-120650000D02*
X148501100Y-121831100D01*
X156210000Y-105410000D02*
X163830000Y-105410000D01*
X133350000Y-120650000D02*
X140970000Y-120650000D01*
X157480000Y-120650000D02*
X162560000Y-115570000D01*
X162560000Y-115570000D02*
X163830000Y-115570000D01*
X156210000Y-120650000D02*
X157480000Y-120650000D01*
M02*
