G04 #@! TF.FileFunction,Copper,L1,Top,Signal*
%FSLAX46Y46*%
G04 Gerber Fmt 4.6, Leading zero omitted, Abs format (unit mm)*
G04 Created by KiCad (PCBNEW 4.0.2-stable) date 5/3/2017 12:37:19 AM*
%MOMM*%
G01*
G04 APERTURE LIST*
%ADD10C,0.100000*%
%ADD11R,2.400000X1.600000*%
%ADD12O,2.400000X1.600000*%
%ADD13R,1.700000X1.700000*%
%ADD14O,1.700000X1.700000*%
%ADD15C,1.270000*%
%ADD16C,1.270000*%
G04 APERTURE END LIST*
D10*
D11*
X163830000Y-120650000D03*
D12*
X156210000Y-105410000D03*
X163830000Y-118110000D03*
X156210000Y-107950000D03*
X163830000Y-115570000D03*
X156210000Y-110490000D03*
X163830000Y-113030000D03*
X156210000Y-113030000D03*
X163830000Y-110490000D03*
X156210000Y-115570000D03*
X163830000Y-107950000D03*
X156210000Y-118110000D03*
X163830000Y-105410000D03*
X156210000Y-120650000D03*
D13*
X148501100Y-105410000D03*
D14*
X148501100Y-107950000D03*
X148501100Y-110490000D03*
X148501100Y-113030000D03*
X148501100Y-115570000D03*
X148501100Y-118110000D03*
X148501100Y-120650000D03*
D11*
X140970000Y-120650000D03*
D12*
X133350000Y-105410000D03*
X140970000Y-118110000D03*
X133350000Y-107950000D03*
X140970000Y-115570000D03*
X133350000Y-110490000D03*
X140970000Y-113030000D03*
X133350000Y-113030000D03*
X140970000Y-110490000D03*
X133350000Y-115570000D03*
X140970000Y-107950000D03*
X133350000Y-118110000D03*
X140970000Y-105410000D03*
X133350000Y-120650000D03*
D15*
X144780000Y-118110000D03*
X144780000Y-113030000D03*
X144780000Y-105410000D03*
X158750000Y-107950000D03*
X161290000Y-119380000D03*
X153670000Y-105410000D03*
X151130000Y-114300000D03*
X149860000Y-123190000D03*
X137160000Y-107950000D03*
X137160000Y-118110000D03*
D16*
X144780000Y-118110000D02*
X144780000Y-113030000D01*
X144780000Y-105410000D02*
X144780000Y-113030000D01*
X161290000Y-119380000D02*
X158750000Y-116840000D01*
X158750000Y-116840000D02*
X158750000Y-107950000D01*
X151130000Y-114300000D02*
X153670000Y-111760000D01*
X153670000Y-111760000D02*
X153670000Y-105410000D01*
X137160000Y-121920000D02*
X138430000Y-123190000D01*
X138430000Y-123190000D02*
X149860000Y-123190000D01*
X137160000Y-118110000D02*
X137160000Y-121920000D01*
X137160000Y-118110000D02*
X137160000Y-107950000D01*
M02*
