M48
;DRILL file {KiCad 4.0.2-stable} date 5/3/2017 12:37:22 AM
;FORMAT={-:-/ absolute / inch / decimal}
FMAT,2
INCH,TZ
T1C0.031
T2C0.032
T3C0.039
%
G90
G05
M72
T1
X5.25Y-4.15
X5.25Y-4.25
X5.25Y-4.35
X5.25Y-4.45
X5.25Y-4.55
X5.25Y-4.65
X5.25Y-4.75
X5.55Y-4.15
X5.55Y-4.25
X5.55Y-4.35
X5.55Y-4.45
X5.55Y-4.55
X5.55Y-4.65
X5.55Y-4.75
X6.15Y-4.15
X6.15Y-4.25
X6.15Y-4.35
X6.15Y-4.45
X6.15Y-4.55
X6.15Y-4.65
X6.15Y-4.75
X6.45Y-4.15
X6.45Y-4.25
X6.45Y-4.35
X6.45Y-4.45
X6.45Y-4.55
X6.45Y-4.65
X6.45Y-4.75
T2
X5.4Y-4.25
X5.4Y-4.65
X5.7Y-4.15
X5.7Y-4.45
X5.7Y-4.65
X5.9Y-4.85
X5.95Y-4.5
X6.05Y-4.15
X6.25Y-4.25
X6.35Y-4.7
T3
X5.8465Y-4.15
X5.8465Y-4.25
X5.8465Y-4.35
X5.8465Y-4.45
X5.8465Y-4.55
X5.8465Y-4.65
X5.8465Y-4.75
T0
M30
