G04 #@! TF.FileFunction,Copper,L1,Top,Signal*
%FSLAX46Y46*%
G04 Gerber Fmt 4.6, Leading zero omitted, Abs format (unit mm)*
G04 Created by KiCad (PCBNEW 4.0.6) date 05/03/17 23:19:27*
%MOMM*%
%LPD*%
G01*
G04 APERTURE LIST*
%ADD10C,0.100000*%
%ADD11R,2.000000X2.000000*%
%ADD12C,2.000000*%
%ADD13C,1.400000*%
%ADD14R,1.700000X1.700000*%
%ADD15O,1.700000X1.700000*%
%ADD16O,1.400000X1.400000*%
%ADD17R,2.400000X1.600000*%
%ADD18O,2.400000X1.600000*%
%ADD19C,1.270000*%
%ADD20C,1.270000*%
G04 APERTURE END LIST*
D10*
D11*
X148590000Y-123270000D03*
D12*
X148590000Y-128270000D03*
D13*
X110490000Y-137160000D03*
X110490000Y-134620000D03*
X110490000Y-101600000D03*
X110490000Y-99060000D03*
X107950000Y-115570000D03*
X107950000Y-113030000D03*
D14*
X156210000Y-138430000D03*
D15*
X156210000Y-135890000D03*
X156210000Y-133350000D03*
X156210000Y-130810000D03*
X156210000Y-128270000D03*
D14*
X156210000Y-113030000D03*
D15*
X156210000Y-110490000D03*
X156210000Y-107950000D03*
X156210000Y-105410000D03*
X156210000Y-102870000D03*
D13*
X132080000Y-133350000D03*
D16*
X137160000Y-133350000D03*
D13*
X148590000Y-133350000D03*
D16*
X148590000Y-138430000D03*
D13*
X140970000Y-133350000D03*
D16*
X140970000Y-128270000D03*
D13*
X137160000Y-128270000D03*
D16*
X132080000Y-128270000D03*
D13*
X115570000Y-123190000D03*
D16*
X115570000Y-118110000D03*
D13*
X113030000Y-110490000D03*
D16*
X113030000Y-105410000D03*
D13*
X113030000Y-97790000D03*
D16*
X118110000Y-97790000D03*
D17*
X119380000Y-102870000D03*
D18*
X127000000Y-118110000D03*
X119380000Y-105410000D03*
X127000000Y-115570000D03*
X119380000Y-107950000D03*
X127000000Y-113030000D03*
X119380000Y-110490000D03*
X127000000Y-110490000D03*
X119380000Y-113030000D03*
X127000000Y-107950000D03*
X119380000Y-115570000D03*
X127000000Y-105410000D03*
X119380000Y-118110000D03*
X127000000Y-102870000D03*
D17*
X119380000Y-123190000D03*
D18*
X127000000Y-138430000D03*
X119380000Y-125730000D03*
X127000000Y-135890000D03*
X119380000Y-128270000D03*
X127000000Y-133350000D03*
X119380000Y-130810000D03*
X127000000Y-130810000D03*
X119380000Y-133350000D03*
X127000000Y-128270000D03*
X119380000Y-135890000D03*
X127000000Y-125730000D03*
X119380000Y-138430000D03*
X127000000Y-123190000D03*
D17*
X135890000Y-102870000D03*
D18*
X143510000Y-118110000D03*
X135890000Y-105410000D03*
X143510000Y-115570000D03*
X135890000Y-107950000D03*
X143510000Y-113030000D03*
X135890000Y-110490000D03*
X143510000Y-110490000D03*
X135890000Y-113030000D03*
X143510000Y-107950000D03*
X135890000Y-115570000D03*
X143510000Y-105410000D03*
X135890000Y-118110000D03*
X143510000Y-102870000D03*
D13*
X107950000Y-120650000D03*
X107950000Y-118110000D03*
X107950000Y-110490000D03*
X107950000Y-107950000D03*
X107950000Y-130810000D03*
X107950000Y-128270000D03*
X107950000Y-125730000D03*
X107950000Y-123190000D03*
D19*
X129540000Y-125730000D03*
X143510000Y-123190000D03*
X158750000Y-133350000D03*
X115570000Y-128270000D03*
X158750000Y-107950000D03*
X121920000Y-109220000D03*
X132803038Y-120116774D03*
X129540000Y-105410000D03*
X114300000Y-120650000D03*
X124460000Y-128270000D03*
X129540000Y-128270000D03*
X153670000Y-130810000D03*
X153670000Y-105410000D03*
X151130000Y-102870000D03*
X151130000Y-116840000D03*
X140970000Y-102870000D03*
X138430000Y-111760000D03*
X124460000Y-120650000D03*
X147320000Y-105410000D03*
X130810000Y-102870000D03*
X133350000Y-107950000D03*
D20*
X143510000Y-123190000D02*
X140970000Y-125730000D01*
X140970000Y-125730000D02*
X129540000Y-125730000D01*
X158750000Y-133350000D02*
X158750000Y-107950000D01*
X111760000Y-124460000D02*
X115570000Y-128270000D01*
X111760000Y-116840000D02*
X111760000Y-124460000D01*
X113030000Y-115570000D02*
X111760000Y-116840000D01*
X115570000Y-115570000D02*
X113030000Y-115570000D01*
X116840000Y-114300000D02*
X115570000Y-115570000D01*
X116840000Y-101600000D02*
X116840000Y-114300000D01*
X118110000Y-100330000D02*
X116840000Y-101600000D01*
X124460000Y-100330000D02*
X118110000Y-100330000D01*
X157480000Y-100330000D02*
X158750000Y-101600000D01*
X158750000Y-101600000D02*
X158750000Y-107950000D01*
X124460000Y-100330000D02*
X157480000Y-100330000D01*
X123190000Y-101600000D02*
X124460000Y-100330000D01*
X123190000Y-107950000D02*
X123190000Y-101600000D01*
X121920000Y-109220000D02*
X123190000Y-107950000D01*
X132803038Y-120116774D02*
X129540000Y-116853736D01*
X129540000Y-116853736D02*
X129540000Y-105410000D01*
X120650000Y-120650000D02*
X114300000Y-120650000D01*
X124460000Y-124460000D02*
X120650000Y-120650000D01*
X124460000Y-128270000D02*
X124460000Y-124460000D01*
X129540000Y-129540000D02*
X130810000Y-130810000D01*
X130810000Y-130810000D02*
X153670000Y-130810000D01*
X129540000Y-128270000D02*
X129540000Y-129540000D01*
X153670000Y-105410000D02*
X153670000Y-130810000D01*
X151130000Y-116840000D02*
X151130000Y-102870000D01*
X139700000Y-110490000D02*
X139700000Y-104140000D01*
X139700000Y-104140000D02*
X140970000Y-102870000D01*
X138430000Y-111760000D02*
X139700000Y-110490000D01*
X124460000Y-120650000D02*
X128270000Y-120650000D01*
X147320000Y-105410000D02*
X147320000Y-118110000D01*
X147320000Y-118110000D02*
X144780000Y-120650000D01*
X144780000Y-120650000D02*
X138430000Y-120650000D01*
X138430000Y-120650000D02*
X135890000Y-123190000D01*
X135890000Y-123190000D02*
X130810000Y-123190000D01*
X130810000Y-123190000D02*
X128270000Y-120650000D01*
X133350000Y-107950000D02*
X133350000Y-105410000D01*
X133350000Y-105410000D02*
X130810000Y-102870000D01*
M02*
