M48
;DRILL file {KiCad 4.0.6} date 05/03/17 23:19:29
;FORMAT={-:-/ absolute / inch / decimal}
FMAT,2
INCH,TZ
T1C0.028
T2C0.031
T3C0.032
T4C0.039
%
G90
G05
M72
T1
X4.45Y-3.85
X4.45Y-4.15
X4.45Y-4.35
X4.55Y-4.65
X4.55Y-4.85
X4.65Y-3.85
X5.2Y-5.05
X5.2Y-5.25
X5.4Y-5.05
X5.4Y-5.25
X5.55Y-5.05
X5.55Y-5.25
X5.85Y-5.25
X5.85Y-5.45
T2
X4.7Y-4.05
X4.7Y-4.15
X4.7Y-4.25
X4.7Y-4.35
X4.7Y-4.45
X4.7Y-4.55
X4.7Y-4.65
X4.7Y-4.85
X4.7Y-4.95
X4.7Y-5.05
X4.7Y-5.15
X4.7Y-5.25
X4.7Y-5.35
X4.7Y-5.45
X5.Y-4.05
X5.Y-4.15
X5.Y-4.25
X5.Y-4.35
X5.Y-4.45
X5.Y-4.55
X5.Y-4.65
X5.Y-4.85
X5.Y-4.95
X5.Y-5.05
X5.Y-5.15
X5.Y-5.25
X5.Y-5.35
X5.Y-5.45
X5.35Y-4.05
X5.35Y-4.15
X5.35Y-4.25
X5.35Y-4.35
X5.35Y-4.45
X5.35Y-4.55
X5.35Y-4.65
X5.65Y-4.05
X5.65Y-4.15
X5.65Y-4.25
X5.65Y-4.35
X5.65Y-4.45
X5.65Y-4.55
X5.65Y-4.65
T3
X4.25Y-4.25
X4.25Y-4.35
X4.25Y-4.45
X4.25Y-4.55
X4.25Y-4.65
X4.25Y-4.75
X4.25Y-4.85
X4.25Y-4.95
X4.25Y-5.05
X4.25Y-5.15
X4.35Y-3.9
X4.35Y-4.
X4.35Y-5.3
X4.35Y-5.4
X4.5Y-4.75
X4.55Y-5.05
X4.8Y-4.3
X4.9Y-4.75
X4.9Y-5.05
X5.1Y-4.15
X5.1Y-4.95
X5.1Y-5.05
X5.15Y-4.05
X5.2285Y-4.729
X5.25Y-4.25
X5.45Y-4.4
X5.55Y-4.05
X5.65Y-4.85
X5.8Y-4.15
X5.95Y-4.05
X5.95Y-4.6
X6.05Y-4.15
X6.05Y-5.15
X6.25Y-4.25
X6.25Y-5.25
T4
X5.85Y-4.8531
X5.85Y-5.05
X6.15Y-4.05
X6.15Y-4.15
X6.15Y-4.25
X6.15Y-4.35
X6.15Y-4.45
X6.15Y-5.05
X6.15Y-5.15
X6.15Y-5.25
X6.15Y-5.35
X6.15Y-5.45
T0
M30
